<?xml version="1.0" ?><!DOCTYPE svg  PUBLIC '-//W3C//DTD SVG 1.1//EN'  'http://www.w3.org/Graphics/SVG/1.1/DTD/svg11.dtd'><svg enable-background="new 0 0 800 800" height="800px" id="Layer_1" version="1.1" viewBox="0 0 800 800" width="800px" xml:space="preserve" xmlns="http://www.w3.org/2000/svg" xmlns:cc="http://creativecommons.org/ns#" xmlns:dc="http://purl.org/dc/elements/1.1/" xmlns:inkscape="http://www.inkscape.org/namespaces/inkscape" xmlns:rdf="http://www.w3.org/1999/02/22-rdf-syntax-ns#" xmlns:sodipodi="http://sodipodi.sourceforge.net/DTD/sodipodi-0.dtd" xmlns:svg="http://www.w3.org/2000/svg" xmlns:xlink="http://www.w3.org/1999/xlink"><g><path d="M457.161,305.844c-20.87,0-40.728,6.629-57.168,18.89c-16.426-12.261-36.284-18.89-57.168-18.89   c-25.606,0-49.673,9.973-67.786,28.085c-18.112,18.105-28.085,42.18-28.085,67.794c0,25.606,9.973,49.681,28.085,67.786   l114.336,114.343c2.816,2.816,6.644,4.4,10.619,4.4c3.989,0,7.802-1.584,10.618-4.4L524.947,469.51   c37.384-37.377,37.384-98.204,0-135.58C506.85,315.817,482.768,305.844,457.161,305.844z M503.711,448.273L399.993,551.998   L296.275,448.273c-12.437-12.438-19.286-28.973-19.286-46.55c0-17.585,6.849-34.121,19.286-46.558   c12.437-12.437,28.965-19.286,46.55-19.286s34.113,6.849,46.55,19.286c5.632,5.632,15.605,5.632,21.237,0   c12.437-12.437,28.965-19.286,46.55-19.286c17.584,0,34.113,6.849,46.55,19.286C529.376,380.839,529.376,422.601,503.711,448.273z" fill="#ff545e"/><path d="M637.772,341.182c14.871,0,26.912-12.048,26.912-26.905c0-14.864-12.041-26.912-26.912-26.912   c-14.856,0-26.897,12.048-26.897,26.912C610.875,329.134,622.916,341.182,637.772,341.182z" fill="#ff545e"/><path d="M736.357,214.776H556.083c-4.136-9.628-8.359-21.023-12.495-32.141   c-5.676-15.252-11.527-31.033-17.497-43.265c-2.508-5.162-7.758-8.44-13.492-8.44H287.388c-5.75,0-10.985,3.278-13.508,8.44   c-5.954,12.239-11.821,28.02-17.496,43.287c-4.122,11.103-8.36,22.498-12.481,32.119h-32.5V192.88   c0-8.294-6.717-15.018-15.018-15.018H109.02c-8.286,0-15.018,6.724-15.018,15.018v21.896H63.643   c-8.301,0-15.018,6.725-15.018,15.018v424.258c0,8.293,6.717,15.018,15.018,15.018h672.714c8.286,0,15.018-6.725,15.018-15.018   V229.794C751.375,221.5,744.644,214.776,736.357,214.776z M721.339,639.033H78.661V244.812h30.358   c8.301,0,15.018-6.725,15.018-15.018v-21.896h57.33v21.896c0,8.293,6.731,15.018,15.018,15.018h57.183   c5.734,0,10.985-3.278,13.493-8.448c5.954-12.224,11.821-27.997,17.482-43.25c4.136-11.109,8.374-22.52,12.51-32.148h205.881   c4.136,9.628,8.374,21.024,12.495,32.133c5.676,15.26,11.542,31.041,17.497,43.272c2.522,5.163,7.758,8.44,13.507,8.44h174.906   V639.033z" fill="#ff545e"/></g></svg>