<?xml version="1.0" encoding="iso-8859-1"?>
<!-- Generator: Adobe Illustrator 19.1.0, SVG Export Plug-In . SVG Version: 6.00 Build 0)  -->
<svg version="1.1" id="Capa_1" xmlns="http://www.w3.org/2000/svg" xmlns:xlink="http://www.w3.org/1999/xlink" x="0px" y="0px"
	 viewBox="0 0 66.497 66.497" style="enable-background:new 0 0 66.497 66.497;" xml:space="preserve">
<g>
	<g id="group-3svg">
		<path id="path-1_21_" style="fill:#ff757d;" d="M7.957,36.575c-0.686-0.038-1.267,0.471-1.338,1.15
			c-0.683,6.966,1.527,13.834,5.916,18.673c4.247,4.687,10.234,6.986,17.313,6.986h0.003c0.895,0,1.813,0.139,2.761,0.059
			c0.614-0.054,1.103-0.449,1.162-1.062c0.639-6.623-1.07-12.454-4.944-16.946C24.276,40.153,16.865,37.034,7.957,36.575z"/>
		<path id="path-2_21_" style="fill:#ff757d;" d="M66.374,37.725c-0.067-0.679-0.663-1.188-1.337-1.15
			c-8.905,0.459-16.316,3.622-20.871,8.904c-3.876,4.494-5.582,10.367-4.944,16.99c0.06,0.614,0.549,1.098,1.163,1.151
			c0.947,0.079,1.866,0.12,2.761,0.12c7.082,0,13.069-2.478,17.319-7.165C64.85,51.737,67.06,44.691,66.374,37.725z"/>
		<path id="path-3_21_" style="fill:#ff757d;" d="M51.025,23.416c0-8.358-6.801-15.158-15.16-15.158
			c-8.357,0-15.158,6.8-15.158,15.158c0,8.36,6.801,15.159,15.158,15.159C44.224,38.575,51.025,31.776,51.025,23.416z"/>
		<path id="path-4_20_" d="M27.347,60.703L27.347,60.703c-0.576,0-1.1-0.101-1.563-0.19c-0.347-0.066-0.675-0.129-0.933-0.129
			c-7.881,0-14.081-2.432-18.428-7.229c-4.712-5.196-7.007-12.331-6.296-19.576c0.147-1.432,1.333-2.506,2.758-2.506
			c0.028,0,0.127,0.003,0.154,0.004c9.375,0.483,17.164,3.792,21.927,9.316c4.141,4.802,5.974,11.029,5.301,18.007
			c-0.125,1.287-1.092,2.163-2.525,2.287C27.608,60.698,27.477,60.703,27.347,60.703z M3.093,34.084
			C2.528,40.41,4.545,46.619,8.646,51.14c3.755,4.143,9.206,6.244,16.202,6.244c0.546,0,1.054,0.097,1.502,0.184
			c0.352,0.067,0.684,0.131,0.968,0.135c0.495-6.054-1.059-11.217-4.623-15.351C18.506,37.495,11.551,34.563,3.093,34.084z"/>
		<path id="path-5_19_" d="M38.146,61.24c-0.916,0-1.887-0.042-2.886-0.126c-1.339-0.116-2.401-1.168-2.531-2.5
			C32.05,51.57,33.883,45.307,38.031,40.5c4.825-5.596,12.613-8.943,21.929-9.423c0.026-0.001,0.122-0.004,0.148-0.004
			c1.431,0,2.617,1.077,2.759,2.504c0.727,7.379-1.625,14.858-6.291,20.006C52.033,58.592,45.66,61.24,38.146,61.24z M35.699,58.14
			c0.846,0.066,1.669,0.1,2.447,0.1c6.644,0,12.249-2.307,16.208-6.672c4.062-4.482,6.128-11.004,5.548-17.484
			c-8.392,0.475-15.349,3.445-19.6,8.375C36.739,46.59,35.149,52.009,35.699,58.14z"/>
		<path id="path-6_18_" d="M30.865,36.075c-9.185,0-16.658-7.473-16.658-16.659c0-9.185,7.473-16.658,16.658-16.658
			c9.186,0,16.66,7.473,16.66,16.658C47.525,28.602,40.051,36.075,30.865,36.075z M30.865,5.758
			c-7.531,0-13.658,6.127-13.658,13.658c0,7.532,6.127,13.659,13.658,13.659c7.532,0,13.66-6.127,13.66-13.659
			C44.525,11.885,38.397,5.758,30.865,5.758z"/>
	</g>
</g>
<g>
</g>
<g>
</g>
<g>
</g>
<g>
</g>
<g>
</g>
<g>
</g>
<g>
</g>
<g>
</g>
<g>
</g>
<g>
</g>
<g>
</g>
<g>
</g>
<g>
</g>
<g>
</g>
<g>
</g>
</svg>
