<?xml version="1.0" encoding="iso-8859-1"?>
<!-- Generator: Adobe Illustrator 19.0.0, SVG Export Plug-In . SVG Version: 6.00 Build 0)  -->
<svg xmlns="http://www.w3.org/2000/svg" xmlns:xlink="http://www.w3.org/1999/xlink" version="1.1" id="Layer_1" x="0px" y="0px" viewBox="0 0 512 512" style="enable-background:new 0 0 512 512;" xml:space="preserve">
<path style="fill:#EFEFEF;" d="M454.679,382.562l-67.341-151.636V46.097c0-19.914-16.144-36.058-36.058-36.058H160.72  c-19.914,0-36.058,16.143-36.058,36.058v184.83L57.321,382.562H454.679z"/>
<path style="fill:#EF717A;" d="M454.201,382.562H57.799v81.835c0,20.746,16.818,37.564,37.564,37.564h321.276  c20.746,0,37.564-16.818,37.564-37.564L454.201,382.562L454.201,382.562z"/>
<polygon style="fill:#00AEEF;" points="283.642,181.131 303.732,135.899 208.269,135.899 228.359,181.131 "/>
<g>
	<path style="fill:#231F20;" d="M463.854,378.488l-66.306-149.305c-0.005-0.596-0.171-183.086-0.171-183.086   C397.378,20.68,376.698,0,351.281,0H160.72c-25.418,0-46.097,20.68-46.097,46.097c0,0-0.166,182.489-0.171,183.085L48.146,378.488   c-0.246,0.554-0.387,3.232-0.387,4.075v81.836C47.76,490.646,69.114,512,95.363,512h321.275c26.249,0,47.603-21.354,47.603-47.602   v-81.836C464.24,381.285,463.854,378.488,463.854,378.488z M160.72,20.078h190.561c14.347,0,26.019,11.672,26.019,26.019v173.138   h-41.592c-9.111-16.865-23.416-30.526-40.76-38.827l17.959-40.434c1.379-3.106,1.094-6.698-0.757-9.547   c-1.852-2.849-5.02-4.568-8.418-4.568h-95.464c-3.398,0-6.566,1.719-8.417,4.568s-2.137,6.441-0.758,9.547l17.96,40.434   c-17.344,8.3-31.65,21.961-40.76,38.827h-41.591V46.097C134.701,31.75,146.373,20.078,160.72,20.078z M308.719,308.844   c-0.459,0.517-0.853,1.068-1.187,1.643c-34.136-4.998-68.929-4.998-103.066,0c-0.333-0.575-0.728-1.127-1.187-1.643   c-11.434-12.889-17.73-29.483-17.73-46.724c0-38.846,31.603-70.45,70.45-70.45s70.449,31.603,70.449,70.45   C326.449,279.361,320.153,295.955,308.719,308.844z M223.712,145.938h64.575l-12.376,27.865   c-6.409-1.444-13.072-2.212-19.911-2.212c-6.839,0-13.502,0.767-19.911,2.212L223.712,145.938z M131.921,239.314h36.462   c-1.898,7.289-2.911,14.932-2.911,22.807c0,18.872,5.89,37.129,16.712,52.369c-13.675,2.907-27.198,6.622-40.476,11.168   c-5.245,1.796-8.042,7.504-6.246,12.75c1.428,4.168,5.325,6.791,9.497,6.791c1.078,0,2.176-0.176,3.253-0.544   c69.507-23.799,146.068-23.799,215.577,0c5.248,1.798,10.954-1.001,12.75-6.246c1.796-5.247-1.001-10.954-6.246-12.75   c-13.278-4.546-26.801-8.259-40.476-11.168c10.821-15.238,16.712-33.496,16.712-52.369c0-7.875-1.013-15.518-2.911-22.807h36.462   l59.157,133.209H72.764L131.921,239.314z M416.638,491.922H95.363c-15.177,0-27.525-12.347-27.525-27.524v-71.796h376.324v26.749   H209.485c-5.545,0-10.039,4.496-10.039,10.039c0,5.544,4.495,10.039,10.039,10.039h234.677v24.97   C444.162,479.574,431.815,491.922,416.638,491.922z"/>
	<path style="fill:#231F20;" d="M177.273,78.351h157.454c5.544,0,10.039-4.496,10.039-10.039c0-5.544-4.496-10.039-10.039-10.039   H177.273c-5.545,0-10.039,4.496-10.039,10.039C167.234,73.856,171.729,78.351,177.273,78.351z"/>
	<path style="fill:#231F20;" d="M159.958,419.35h-6.024c-5.545,0-10.039,4.496-10.039,10.039c0,5.544,4.495,10.039,10.039,10.039   h6.024c5.545,0,10.039-4.496,10.039-10.039C169.997,423.846,165.503,419.35,159.958,419.35z"/>
</g>
<g>
</g>
<g>
</g>
<g>
</g>
<g>
</g>
<g>
</g>
<g>
</g>
<g>
</g>
<g>
</g>
<g>
</g>
<g>
</g>
<g>
</g>
<g>
</g>
<g>
</g>
<g>
</g>
<g>
</g>
</svg>
