<?xml version="1.0" standalone="no"?>
<!DOCTYPE svg PUBLIC "-//W3C//DTD SVG 20010904//EN"
 "http://www.w3.org/TR/2001/REC-SVG-20010904/DTD/svg10.dtd">
<svg version="1.0" xmlns="http://www.w3.org/2000/svg"
 width="1023.000000pt" height="1023.000000pt" viewBox="0 0 1023.000000 1023.000000"
 preserveAspectRatio="xMidYMid meet">
<metadata>
Created by potrace 1.14, written by Peter Selinger 2001-2017
</metadata>
<g transform="translate(0.000000,1023.000000) scale(0.100000,-0.100000)"
fill="#000000" stroke="none">
<path d="M2762 6239 c-292 -38 -525 -220 -672 -525 -70 -146 -120 -359 -120
-516 l0 -78 100 0 100 0 0 54 c0 89 28 277 56 372 57 197 153 366 266 469 219
198 560 206 798 19 202 -159 350 -511 350 -836 l0 -78 107 0 106 0 -6 103
c-18 297 -122 558 -297 750 -191 209 -479 306 -788 266z"/>
<path d="M10 6161 l0 -38 78 -5 c88 -5 145 -28 176 -71 20 -28 21 -42 24 -478
l3 -449 94 0 94 0 3 448 c3 507 2 495 80 527 24 10 84 21 133 24 l90 6 3 38 3
37 -390 0 -391 0 0 -39z"/>
<path d="M4110 6161 l0 -41 53 0 c69 0 166 -26 193 -51 40 -37 44 -87 44 -528
l0 -421 423 0 c374 0 432 2 514 19 122 25 209 69 289 143 72 67 103 114 136
204 29 80 32 264 5 341 -59 167 -206 289 -420 345 -79 21 -106 22 -659 25
l-578 4 0 -40z m1113 -56 c230 -48 358 -209 357 -449 -1 -241 -131 -416 -340
-456 -29 -5 -187 -10 -351 -10 l-299 0 0 403 c0 487 -2 476 120 520 35 13 446
6 513 -8z"/>
<path d="M6120 6160 l0 -40 43 0 c103 0 187 -49 207 -121 6 -20 10 -209 10
-454 l0 -420 520 -1 520 -2 0 234 0 234 -34 0 -33 0 -11 -85 c-24 -181 -91
-260 -243 -285 -35 -5 -169 -10 -297 -10 l-233 0 3 398 c4 540 -21 505 372
510 290 4 363 -6 492 -67 100 -47 180 -121 294 -268 46 -59 87 -112 91 -116 8
-11 49 10 49 24 0 6 -46 123 -102 260 l-102 249 -773 0 -773 0 0 -40z"/>
<path d="M8122 6163 l3 -38 67 -7 c77 -7 133 -31 160 -68 32 -45 38 -125 38
-531 l0 -399 45 0 45 0 2 402 3 402 300 -402 300 -401 118 -1 c92 0 117 3 111
13 -4 6 -187 249 -407 540 l-399 527 -195 0 -194 0 3 -37z"/>
<path d="M9602 6163 l3 -38 72 -6 c82 -8 138 -32 167 -72 20 -28 21 -42 24
-478 l3 -449 44 0 44 0 3 454 3 455 29 30 c36 37 103 61 173 61 l53 0 0 40 0
40 -311 0 -310 0 3 -37z"/>
<path d="M950 4981 c0 -5 8 -11 18 -13 12 -4 26 -38 51 -129 19 -68 37 -130
41 -138 7 -14 18 16 52 142 6 26 15 47 19 47 3 0 16 -39 29 -87 32 -123 35
-126 54 -57 52 181 67 224 81 224 8 0 15 5 15 10 0 6 -21 10 -46 10 -27 0 -43
-4 -39 -10 3 -5 13 -10 21 -10 18 0 19 1 -14 -114 l-28 -99 -27 94 c-31 110
-32 119 -12 119 8 0 15 5 15 10 0 6 -22 10 -50 10 -50 0 -67 -13 -30 -23 11
-3 20 -13 20 -24 -1 -34 -48 -178 -54 -163 -3 8 -16 53 -29 100 -23 81 -24 85
-6 88 39 7 17 22 -31 22 -27 0 -50 -4 -50 -9z"/>
<path d="M1460 4980 c0 -5 7 -10 15 -10 13 0 15 -21 15 -125 0 -104 -2 -125
-15 -125 -8 0 -15 -4 -15 -10 0 -6 43 -10 108 -10 l108 0 12 33 c18 51 15 54
-22 18 -30 -29 -38 -32 -87 -29 l-54 3 -3 58 -3 57 45 0 c39 0 45 -3 54 -27 9
-24 10 -18 10 37 0 55 -1 61 -10 38 -9 -25 -15 -28 -54 -28 l-45 0 3 53 3 52
51 3 c43 2 56 -1 83 -23 35 -30 38 -27 16 15 l-16 30 -99 0 c-60 0 -100 -4
-100 -10z"/>
<path d="M1860 4981 c0 -5 7 -11 15 -15 12 -4 15 -27 15 -119 0 -107 -1 -116
-22 -130 -22 -15 -19 -16 58 -16 68 -1 86 3 115 22 95 63 85 210 -17 253 -37
15 -164 19 -164 5z m179 -39 c33 -33 46 -88 31 -140 -12 -47 -37 -71 -82 -81
-67 -14 -68 -13 -68 125 l0 124 46 0 c36 0 51 -6 73 -28z"/>
<path d="M2280 4981 c0 -5 7 -11 15 -15 12 -4 15 -27 15 -119 0 -107 -1 -116
-22 -130 -22 -15 -19 -16 52 -16 126 -1 184 44 184 144 0 97 -58 145 -176 145
-38 0 -68 -4 -68 -9z m179 -39 c33 -33 46 -88 31 -140 -12 -47 -37 -71 -82
-81 -67 -14 -68 -13 -68 125 l0 124 46 0 c36 0 51 -6 73 -28z"/>
<path d="M2700 4980 c0 -5 7 -10 15 -10 13 0 15 -20 15 -123 0 -119 -1 -124
-22 -135 -20 -9 -15 -11 32 -11 48 0 53 1 38 13 -15 11 -18 31 -18 135 0 101
2 121 15 121 8 0 15 5 15 10 0 6 -20 10 -45 10 -25 0 -45 -4 -45 -10z"/>
<path d="M2968 4973 c21 -14 22 -23 22 -129 0 -105 -1 -114 -22 -128 -22 -15
-21 -16 27 -15 43 0 47 2 28 11 -22 10 -23 17 -23 120 0 60 3 107 8 104 4 -2
45 -56 92 -120 47 -63 88 -115 93 -116 4 0 7 61 7 135 0 113 2 135 15 135 8 0
15 5 15 10 0 6 -18 10 -40 10 -22 0 -40 -4 -40 -10 0 -5 7 -10 15 -10 12 0 15
-18 15 -106 l0 -107 -87 116 c-78 103 -91 116 -118 116 l-30 0 23 -16z"/>
<path d="M3459 4975 c-41 -22 -62 -77 -57 -151 5 -73 28 -107 88 -125 28 -9
44 -8 73 5 20 8 37 11 37 5 0 -5 5 -9 10 -9 6 0 10 22 10 49 0 40 4 53 22 65
21 15 20 16 -37 16 -55 0 -58 -1 -35 -13 33 -16 36 -46 10 -80 -15 -19 -31
-27 -51 -27 -65 0 -99 45 -99 130 0 124 85 179 165 109 36 -32 42 -29 25 15
-9 24 -14 26 -72 26 -35 -1 -75 -7 -89 -15z"/>
<path d="M4060 4980 c0 -5 7 -10 15 -10 13 0 15 -21 15 -125 0 -104 -2 -125
-15 -125 -8 0 -15 -4 -15 -10 0 -17 138 -12 176 6 45 22 79 90 71 146 -11 85
-71 128 -179 128 -39 0 -68 -4 -68 -10z m180 -38 c71 -71 35 -216 -55 -222
-69 -5 -65 -12 -65 125 l0 125 46 0 c37 0 51 -5 74 -28z"/>
<path d="M4480 4981 c0 -5 7 -11 15 -15 12 -4 15 -27 15 -121 0 -94 -3 -117
-15 -121 -39 -15 -6 -24 90 -24 l105 0 14 33 c7 17 12 34 10 36 -2 2 -17 -8
-34 -23 -26 -21 -42 -26 -86 -26 l-54 0 0 60 0 60 40 0 c33 0 42 -5 54 -27 15
-27 15 -26 15 37 0 63 0 64 -15 38 -12 -23 -21 -28 -54 -28 l-40 0 0 55 0 55
54 0 c44 0 58 -4 80 -27 32 -32 37 -28 20 15 l-14 32 -100 0 c-55 0 -100 -4
-100 -9z"/>
<path d="M4921 4960 c-49 -50 -56 -157 -12 -219 43 -60 143 -60 185 0 25 36
19 40 -13 8 -53 -52 -135 -33 -162 38 -13 36 -11 99 5 138 27 63 85 73 141 24
20 -18 37 -30 39 -28 3 2 -2 18 -9 35 -12 30 -15 31 -78 33 -60 1 -67 -1 -96
-29z"/>
<path d="M5336 4965 c-34 -32 -46 -64 -46 -129 0 -172 214 -191 246 -21 8 46
-13 113 -46 147 -39 38 -114 40 -154 3z m129 -9 c75 -75 39 -246 -52 -246 -58
0 -93 48 -93 130 0 58 20 113 47 129 31 18 72 13 98 -13z"/>
<path d="M5700 4982 c0 -5 9 -12 20 -15 19 -5 20 -14 20 -120 0 -107 -1 -116
-22 -130 -22 -15 -21 -16 32 -16 48 0 53 1 38 13 -14 10 -18 28 -18 70 0 53 1
56 24 56 20 0 32 -13 62 -70 34 -61 42 -70 67 -70 16 0 26 4 22 10 -3 6 -12
10 -18 10 -7 0 -27 27 -45 60 -30 55 -31 61 -15 67 34 12 53 36 53 68 0 54
-28 69 -131 73 -54 3 -89 0 -89 -6z m178 -24 c16 -16 15 -73 -2 -87 -7 -6 -34
-14 -60 -17 l-46 -7 0 62 0 61 48 0 c26 0 53 -5 60 -12z"/>
<path d="M6340 4980 c0 -5 7 -10 15 -10 13 0 15 -21 15 -125 0 -108 -2 -125
-17 -134 -14 -8 -5 -10 37 -11 52 0 53 1 32 16 -18 12 -22 25 -22 70 l0 54 44
0 c39 0 45 -3 54 -27 9 -24 10 -20 11 32 0 46 -2 55 -9 38 -8 -19 -17 -23 -55
-23 l-46 0 3 53 3 52 51 3 c43 2 56 -1 83 -23 35 -30 38 -27 16 15 l-16 30
-99 0 c-60 0 -100 -4 -100 -10z"/>
<path d="M6730 4980 c0 -5 7 -10 15 -10 13 0 15 -20 15 -123 0 -119 -1 -124
-22 -135 -18 -8 0 -11 84 -11 l108 -1 14 33 c17 42 12 46 -20 14 -28 -28 -79
-43 -113 -32 -20 6 -21 13 -21 131 0 117 1 124 20 124 11 0 20 5 20 10 0 6
-22 10 -50 10 -27 0 -50 -4 -50 -10z"/>
<path d="M7160 4962 c-78 -79 -52 -230 45 -262 46 -15 103 6 132 49 28 42 31
126 7 177 -33 68 -132 87 -184 36z m122 7 c64 -34 63 -214 -1 -249 -85 -45
-159 54 -130 172 17 74 74 107 131 77z"/>
<path d="M7520 4981 c0 -5 8 -11 18 -13 13 -4 26 -36 51 -129 19 -68 37 -130
41 -138 7 -14 18 16 52 142 6 26 15 47 19 47 3 0 16 -39 29 -87 32 -123 35
-126 54 -57 52 181 67 224 81 224 8 0 15 5 15 10 0 6 -21 10 -46 10 -27 0 -43
-4 -39 -10 3 -5 13 -10 21 -10 18 0 19 1 -14 -114 l-28 -99 -27 94 c-31 110
-32 119 -12 119 8 0 15 5 15 10 0 6 -22 10 -50 10 -27 0 -50 -4 -50 -10 0 -5
7 -10 15 -10 9 0 18 -7 22 -16 6 -17 -37 -187 -46 -178 -3 3 -18 47 -32 97
-25 87 -25 92 -8 95 39 7 17 22 -31 22 -27 0 -50 -4 -50 -9z"/>
<path d="M8030 4980 c0 -5 7 -10 15 -10 13 0 15 -21 15 -125 0 -104 -2 -125
-15 -125 -8 0 -15 -4 -15 -10 0 -6 43 -10 108 -10 l108 0 12 33 c18 51 15 54
-22 18 -30 -29 -38 -32 -87 -29 l-54 3 -3 58 -3 57 45 0 c39 0 45 -3 54 -27 9
-24 10 -18 10 37 0 55 -1 61 -10 38 -9 -25 -15 -28 -54 -28 l-45 0 3 53 3 52
51 3 c43 2 56 -1 83 -23 35 -30 38 -27 16 15 l-16 30 -99 0 c-60 0 -100 -4
-100 -10z"/>
<path d="M8430 4980 c0 -5 7 -10 15 -10 13 0 15 -20 15 -123 0 -119 -1 -124
-22 -135 -19 -9 -13 -11 37 -11 50 0 56 2 38 11 -20 10 -23 19 -23 70 0 57 1
58 28 58 23 0 32 -10 63 -68 30 -57 39 -67 65 -70 l29 -3 -21 18 c-20 17 -74
102 -74 116 0 4 13 13 30 22 55 28 52 97 -6 121 -38 16 -174 19 -174 4z m176
-35 c12 -18 14 -31 7 -52 -10 -29 -34 -40 -90 -42 l-33 -1 0 60 0 60 50 0 c42
0 52 -4 66 -25z"/>
<path d="M8851 4964 c-12 -15 -21 -34 -21 -44 0 -31 37 -65 91 -84 87 -31 106
-57 73 -104 -24 -35 -84 -30 -129 9 -20 18 -37 30 -39 28 -3 -2 2 -19 10 -38
9 -22 19 -31 28 -28 8 3 29 2 45 -3 39 -11 97 5 111 30 16 29 12 75 -8 93 -10
9 -38 24 -62 32 -70 25 -90 42 -90 75 0 57 69 67 125 19 36 -32 42 -29 26 14
-8 22 -16 24 -74 26 -60 1 -67 -1 -86 -25z"/>
<path d="M3837 4734 c-16 -16 -6 -35 16 -32 12 2 22 10 22 18 0 16 -26 25 -38
14z"/>
<path d="M6120 4720 c0 -13 7 -20 20 -20 13 0 20 7 20 20 0 13 -7 20 -20 20
-13 0 -20 -7 -20 -20z"/>
<path d="M297 4583 c-4 -3 -7 -77 -7 -163 0 -142 -2 -160 -22 -200 -30 -58
-67 -78 -172 -92 l-86 -12 0 -38 0 -38 768 0 768 0 103 248 c57 136 109 259
116 274 12 26 12 26 -26 25 -36 -2 -42 -7 -77 -60 -121 -185 -282 -315 -461
-374 -85 -28 -88 -28 -341 -28 -235 0 -258 2 -295 20 -28 14 -47 33 -62 65
-21 40 -23 58 -23 206 l0 161 -52 7 c-69 8 -123 8 -131 -1z"/>
<path d="M2070 4580 c0 -16 59 -129 93 -180 132 -195 288 -316 482 -372 70
-20 102 -23 255 -23 206 0 276 15 424 93 153 80 309 247 400 430 32 63 31 64
-84 60 l-83 -3 -46 -90 c-79 -155 -162 -253 -274 -326 -151 -98 -380 -122
-553 -58 -78 29 -183 99 -235 157 -57 64 -133 183 -165 259 l-27 63 -94 0
c-57 0 -93 -4 -93 -10z"/>
<path d="M7828 4531 c-108 -145 -258 -275 -380 -330 -124 -56 -172 -63 -441
-68 -262 -5 -315 0 -369 38 -54 39 -62 69 -66 247 l-4 162 -94 0 -94 0 0 -143
c0 -78 -4 -158 -10 -176 -21 -75 -113 -131 -212 -131 -38 0 -38 0 -38 -40 l0
-40 809 0 810 0 19 53 c11 28 56 146 101 260 45 115 81 210 81 212 0 1 -16 5
-35 7 -33 4 -38 0 -77 -51z"/>
<path d="M9500 4579 c0 -3 91 -127 203 -275 170 -226 206 -269 227 -269 l25 0
0 275 0 275 -42 3 -42 3 -3 -92 -3 -92 -65 86 -65 86 -118 3 c-64 2 -117 0
-117 -3z"/>
<path d="M4400 4442 c0 -248 -35 -297 -227 -318 l-63 -7 0 -38 0 -39 383 2
382 3 3 36 3 36 -65 7 c-74 7 -141 29 -169 54 -46 40 -57 88 -57 250 l0 152
-95 0 -95 0 0 -138z"/>
<path d="M5300 4573 c0 -4 65 -125 144 -268 l144 -260 203 0 204 0 3 35 3 35
-84 12 c-90 12 -148 36 -184 75 -12 13 -66 102 -120 198 l-99 175 -107 3 c-59
1 -107 -1 -107 -5z"/>
<path d="M8388 4418 c-5 -173 -12 -201 -60 -244 -29 -27 -72 -41 -149 -50
l-60 -7 3 -36 3 -36 308 -3 307 -2 0 39 0 38 -60 7 c-114 13 -171 48 -190 115
-5 20 -10 105 -10 189 l0 152 -44 0 -43 0 -5 -162z"/>
</g>
</svg>
